<svg id="svg" version="1.1" xmlns="http://www.w3.org/2000/svg" xmlns:xlink="http://www.w3.org/1999/xlink" width="400" height="400" viewBox="0, 0, 400,400"><g id="svgg"><path id="path0" d="M67.846 135.646 C 66.717 136.190,66.965 137.118,69.131 140.449 C 70.078 141.907,71.261 143.730,71.758 144.500 C 72.954 146.354,75.478 150.248,76.294 151.500 C 76.653 152.050,77.645 153.580,78.499 154.900 C 79.353 156.220,80.549 158.065,81.157 159.000 C 82.372 160.869,84.103 163.546,85.103 165.100 C 87.120 168.237,89.418 171.780,91.526 175.000 C 92.282 176.155,92.945 177.199,93.000 177.320 C 93.055 177.442,93.425 178.027,93.823 178.620 C 94.221 179.214,95.038 180.465,95.639 181.400 C 96.240 182.335,97.354 184.045,98.116 185.200 C 98.877 186.355,99.535 187.390,99.579 187.500 C 99.622 187.610,100.079 188.330,100.594 189.100 C 101.109 189.870,102.093 191.371,102.782 192.435 L 104.033 194.370 101.644 197.935 C 99.200 201.582,94.717 208.245,89.084 216.600 C 85.942 221.260,80.584 229.220,76.832 234.800 C 75.759 236.395,73.009 240.479,70.720 243.875 C 65.898 251.029,65.808 251.228,66.963 252.150 C 67.490 252.570,88.616 252.506,89.510 252.082 C 90.024 251.838,90.658 251.032,92.224 248.632 C 93.348 246.909,95.905 243.025,97.907 240.000 C 99.908 236.975,103.240 231.935,105.311 228.800 C 107.381 225.665,110.574 220.846,112.405 218.092 L 115.735 213.084 117.167 215.392 C 117.954 216.661,119.341 218.850,120.249 220.255 C 121.157 221.661,122.333 223.506,122.862 224.355 C 124.192 226.490,126.290 229.805,127.584 231.816 C 128.181 232.742,128.954 233.950,129.303 234.500 C 129.652 235.050,130.559 236.474,131.318 237.665 C 132.078 238.855,132.790 239.974,132.900 240.151 C 134.599 242.886,136.740 246.226,137.632 247.533 C 137.944 247.991,138.200 248.430,138.200 248.509 C 138.200 248.588,138.515 249.091,138.900 249.627 C 139.285 250.162,139.600 250.675,139.600 250.766 C 139.600 251.015,140.420 251.713,141.140 252.077 C 141.923 252.472,163.297 252.576,164.023 252.188 C 165.092 251.616,164.893 250.641,163.190 248.100 C 161.057 244.918,157.894 240.092,157.819 239.903 C 157.774 239.791,157.020 238.620,156.142 237.300 C 155.264 235.980,154.077 234.180,153.503 233.300 C 149.469 227.115,147.624 224.292,146.707 222.900 C 146.127 222.020,144.951 220.220,144.094 218.900 C 142.458 216.380,139.130 211.286,136.254 206.900 C 131.910 200.274,128.336 194.800,128.126 194.449 C 128.036 194.299,128.267 193.776,128.699 193.149 C 129.097 192.572,130.663 190.255,132.178 188.000 C 133.694 185.745,136.363 181.785,138.111 179.200 C 139.858 176.615,142.560 172.610,144.114 170.300 C 145.669 167.990,148.370 163.985,150.115 161.400 C 151.861 158.815,154.687 154.623,156.395 152.084 C 158.103 149.546,160.850 145.473,162.500 143.034 C 166.685 136.848,166.781 136.632,165.760 135.750 C 165.386 135.426,164.553 135.400,154.541 135.400 C 142.155 135.400,142.665 135.332,141.473 137.146 C 141.129 137.671,139.785 139.720,138.488 141.700 C 137.191 143.680,135.212 146.695,134.090 148.400 C 132.968 150.105,130.926 153.210,129.551 155.300 C 128.176 157.390,126.072 160.586,124.876 162.402 C 123.679 164.218,121.270 167.882,119.521 170.543 L 116.343 175.381 115.971 174.909 C 115.767 174.649,115.600 174.378,115.600 174.305 C 115.600 174.233,115.375 173.878,115.100 173.518 C 114.825 173.157,114.600 172.800,114.600 172.723 C 114.600 172.646,114.434 172.340,114.231 172.042 C 113.808 171.421,113.632 171.141,110.678 166.418 C 109.480 164.504,108.289 162.573,108.030 162.128 C 107.772 161.684,107.233 160.820,106.831 160.210 C 106.430 159.599,106.056 159.010,106.001 158.900 C 105.945 158.790,105.728 158.430,105.518 158.100 C 105.308 157.770,104.925 157.163,104.668 156.750 C 104.411 156.338,103.988 155.663,103.728 155.250 C 101.462 151.651,98.814 147.388,98.429 146.718 C 98.171 146.268,97.833 145.758,97.679 145.584 C 97.526 145.411,97.400 145.194,97.400 145.103 C 97.400 145.012,97.191 144.659,96.935 144.319 C 96.680 143.978,96.408 143.565,96.332 143.400 C 96.256 143.235,95.947 142.720,95.647 142.255 C 95.346 141.790,94.676 140.710,94.158 139.855 C 92.415 136.981,91.906 136.315,91.100 135.859 L 90.300 135.407 79.300 135.417 C 71.761 135.424,68.157 135.496,67.846 135.646 M293.840 211.040 C 293.662 211.218,293.600 213.227,293.600 218.842 L 293.600 226.404 292.550 225.708 C 288.017 222.702,279.895 223.877,276.291 228.059 C 271.602 233.502,271.667 243.257,276.426 248.200 C 280.910 252.857,288.859 253.589,293.451 249.766 C 294.286 249.071,294.417 249.018,294.520 249.337 C 295.240 251.562,295.300 251.600,298.108 251.600 C 299.899 251.600,300.437 251.534,300.686 251.286 C 301.100 250.871,301.173 211.453,300.760 211.040 C 300.424 210.704,294.176 210.704,293.840 211.040 M309.946 212.265 C 306.202 213.430,305.903 219.088,309.497 220.777 C 312.035 221.971,315.335 220.662,316.002 218.197 C 317.090 214.174,313.889 211.039,309.946 212.265 M225.000 216.400 C 224.627 216.773,224.600 217.067,224.600 220.700 L 224.600 224.600 222.914 224.600 C 220.566 224.600,220.600 224.549,220.600 228.083 C 220.600 231.615,220.590 231.600,222.966 231.600 L 224.600 231.600 224.603 238.150 C 224.607 247.583,225.289 249.656,228.975 251.447 C 233.073 253.439,240.158 251.086,238.611 248.247 C 238.507 248.056,238.189 247.270,237.906 246.500 C 236.801 243.501,236.441 243.207,234.948 244.082 C 232.383 245.586,232.000 244.622,232.000 236.663 L 232.000 231.600 234.589 231.600 C 237.918 231.600,237.800 231.734,237.800 227.970 C 237.800 224.435,237.957 224.600,234.586 224.600 L 232.000 224.600 232.000 220.631 C 232.000 215.631,232.292 216.000,228.334 216.000 C 225.667 216.000,225.364 216.036,225.000 216.400 M204.700 224.152 C 199.608 224.720,196.159 228.381,196.462 232.900 C 196.750 237.211,199.115 239.432,205.400 241.294 C 209.643 242.551,210.571 243.133,210.008 244.185 C 209.221 245.655,204.914 245.495,201.401 243.863 C 198.831 242.670,198.867 242.653,197.399 245.686 C 195.755 249.082,195.752 249.071,198.848 250.490 C 207.782 254.585,217.175 251.374,217.555 244.094 C 217.811 239.215,215.386 236.720,208.600 234.880 C 204.640 233.806,203.579 233.211,203.888 232.239 C 204.410 230.594,208.797 230.731,212.284 232.501 C 213.597 233.167,214.800 232.804,214.800 231.741 C 214.800 231.687,215.205 230.923,215.700 230.043 C 217.237 227.310,217.018 226.841,213.500 225.322 C 210.833 224.171,207.958 223.789,204.700 224.152 M330.918 224.329 C 322.786 226.072,318.363 234.712,321.220 243.272 C 325.512 256.128,345.527 254.802,348.145 241.488 C 350.302 230.519,341.755 222.006,330.918 224.329 M242.714 224.914 C 242.339 225.290,242.246 240.690,242.605 243.000 C 243.951 251.647,253.214 255.160,260.146 249.652 L 260.992 248.980 261.123 249.797 C 261.388 251.453,261.671 251.600,264.600 251.600 C 266.671 251.600,267.233 251.539,267.486 251.286 C 267.964 250.807,267.964 225.393,267.486 224.914 C 267.063 224.491,261.300 224.461,260.750 224.878 C 260.429 225.122,260.400 225.690,260.400 231.680 C 260.400 242.200,259.149 245.133,254.702 245.045 C 250.411 244.960,249.953 243.820,249.853 233.000 C 249.788 225.967,249.744 225.073,249.452 224.850 C 248.924 224.448,243.126 224.503,242.714 224.914 M308.350 224.816 C 307.776 225.150,307.812 251.085,308.387 251.393 C 309.055 251.751,314.711 251.660,315.086 251.286 C 315.608 250.763,315.559 225.405,315.034 224.931 C 314.607 224.544,308.982 224.448,308.350 224.816 M290.126 232.155 C 295.148 234.719,294.450 242.733,289.060 244.398 C 284.235 245.888,280.321 243.027,280.309 238.000 C 280.296 232.731,285.355 229.720,290.126 232.155 M335.787 231.598 C 340.020 232.400,342.262 237.162,340.325 241.233 C 338.000 246.121,330.296 245.894,328.407 240.881 C 326.378 235.496,330.304 230.558,335.787 231.598 M170.331 235.766 C 169.792 236.361,169.848 241.048,170.400 241.600 C 170.953 242.153,186.939 242.233,187.486 241.686 C 187.740 241.431,187.800 240.862,187.800 238.700 C 187.800 236.538,187.740 235.969,187.486 235.714 C 186.967 235.195,170.804 235.244,170.331 235.766 " stroke="none" fill="#f4f4f4" fill-rule="evenodd"></path><path id="path1" d="M329.687 233.250 L 329.100 233.900 329.750 233.313 C 330.356 232.765,330.492 232.600,330.337 232.600 C 330.303 232.600,330.010 232.893,329.687 233.250 " stroke="none" fill="#f8f4f4" fill-rule="evenodd"></path><path id="path2" d="M329.687 233.250 L 329.100 233.900 329.750 233.313 C 330.356 232.765,330.492 232.600,330.337 232.600 C 330.303 232.600,330.010 232.893,329.687 233.250 " stroke="none" fill="#f8f4f4" fill-rule="evenodd"></path><path id="path3" d="M329.687 233.250 L 329.100 233.900 329.750 233.313 C 330.356 232.765,330.492 232.600,330.337 232.600 C 330.303 232.600,330.010 232.893,329.687 233.250 " stroke="none" fill="#f8f4f4" fill-rule="evenodd"></path><path id="path4" d="M329.687 233.250 L 329.100 233.900 329.750 233.313 C 330.356 232.765,330.492 232.600,330.337 232.600 C 330.303 232.600,330.010 232.893,329.687 233.250 " stroke="none" fill="#f8f4f4" fill-rule="evenodd"></path></g></svg>